<svg xmlns="http://www.w3.org/2000/svg" width="1400" height="1120" viewBox="0 0 1400 1120"><style>text{font-family:ui-monospace,SFMono-Regular,Menlo,Consolas,monospace;fill:#111}.card{fill:#fff;stroke:#c9c9c9}.path{fill:none;stroke:#111;stroke-width:6;stroke-linecap:round;stroke-linejoin:round}.node{fill:#fff;stroke:#111;stroke-width:2}.label{font-size:18px;font-weight:700}.meta{font-size:10px}</style><rect width="100%" height="100%" fill="#f7f7f7"/><text x="24" y="30" class="label">HNK40 Glyph Genesis V1.3 — static-visible unique candidate family</text><text x="24" y="50" class="meta">40/40 static segment signatures unique; Hamming(7,4); 12 nodes / 11 edges; min edge distance 3.</text><g transform="translate(8,70)"><rect class="card" x="0" y="0" width="124" height="232" rx="8"/><text x="10" y="24" class="label">G01</text><text x="10" y="41" class="meta">W1 · 0000 → 0000000</text><polyline class="path" points="21.0,105.3 32.7,105.3 32.7,117.0 44.4,117.0 56.1,117.0 56.1,128.7 67.9,128.7 79.6,128.7 79.6,117.0 91.3,117.0 103.0,117.0 103.0,105.3"/><circle class="node" cx="21.0" cy="105.3" r="3.2"/><circle class="node" cx="32.7" cy="105.3" r="3.2"/><circle class="node" cx="32.7" cy="117.0" r="3.2"/><circle class="node" cx="44.4" cy="117.0" r="3.2"/><circle class="node" cx="56.1" cy="117.0" r="3.2"/><circle class="node" cx="56.1" cy="128.7" r="3.2"/><circle class="node" cx="67.9" cy="128.7" r="3.2"/><circle class="node" cx="79.6" cy="128.7" r="3.2"/><circle class="node" cx="79.6" cy="117.0" r="3.2"/><circle class="node" cx="91.3" cy="117.0" r="3.2"/><circle class="node" cx="103.0" cy="117.0" r="3.2"/><circle class="node" cx="103.0" cy="105.3" r="3.2"/><text x="10" y="216" class="meta">CRC E0EA621F</text></g><g transform="translate(148,70)"><rect class="card" x="0" y="0" width="124" height="232" rx="8"/><text x="10" y="24" class="label">G02</text><text x="10" y="41" class="meta">W1 · 0001 → 1101001</text><polyline class="path" points="22.2,115.8 21.0,115.8 21.0,117.0 103.0,117.0 21.0,117.0 21.0,118.2 103.0,118.2 21.0,118.2 21.0,117.0 22.2,117.0 21.0,117.0 21.0,115.8"/><circle class="node" cx="22.2" cy="115.8" r="3.2"/><circle class="node" cx="21.0" cy="115.8" r="3.2"/><circle class="node" cx="21.0" cy="117.0" r="3.2"/><circle class="node" cx="103.0" cy="117.0" r="3.2"/><circle class="node" cx="21.0" cy="117.0" r="3.2"/><circle class="node" cx="21.0" cy="118.2" r="3.2"/><circle class="node" cx="103.0" cy="118.2" r="3.2"/><circle class="node" cx="21.0" cy="118.2" r="3.2"/><circle class="node" cx="21.0" cy="117.0" r="3.2"/><circle class="node" cx="22.2" cy="117.0" r="3.2"/><circle class="node" cx="21.0" cy="117.0" r="3.2"/><circle class="node" cx="21.0" cy="115.8" r="3.2"/><text x="10" y="216" class="meta">CRC D0DA938F</text></g><g transform="translate(288,70)"><rect class="card" x="0" y="0" width="124" height="232" rx="8"/><text x="10" y="24" class="label">G03</text><text x="10" y="41" class="meta">W1 · 0010 → 0101010</text><polyline class="path" points="41.5,76.0 82.5,76.0 82.5,117.0 41.5,117.0 82.5,117.0 82.5,158.0 41.5,158.0 82.5,158.0 82.5,117.0 41.5,117.0 82.5,117.0 82.5,76.0"/><circle class="node" cx="41.5" cy="76.0" r="3.2"/><circle class="node" cx="82.5" cy="76.0" r="3.2"/><circle class="node" cx="82.5" cy="117.0" r="3.2"/><circle class="node" cx="41.5" cy="117.0" r="3.2"/><circle class="node" cx="82.5" cy="117.0" r="3.2"/><circle class="node" cx="82.5" cy="158.0" r="3.2"/><circle class="node" cx="41.5" cy="158.0" r="3.2"/><circle class="node" cx="82.5" cy="158.0" r="3.2"/><circle class="node" cx="82.5" cy="117.0" r="3.2"/><circle class="node" cx="41.5" cy="117.0" r="3.2"/><circle class="node" cx="82.5" cy="117.0" r="3.2"/><circle class="node" cx="82.5" cy="76.0" r="3.2"/><text x="10" y="216" class="meta">CRC CBCB1E42</text></g><g transform="translate(428,70)"><rect class="card" x="0" y="0" width="124" height="232" rx="8"/><text x="10" y="24" class="label">G04</text><text x="10" y="41" class="meta">W1 · 0011 → 1000011</text><polyline class="path" points="41.5,96.5 21.0,96.5 21.0,117.0 41.5,117.0 62.0,117.0 62.0,137.5 82.5,137.5 103.0,137.5 103.0,117.0 82.5,117.0 62.0,117.0 62.0,96.5"/><circle class="node" cx="41.5" cy="96.5" r="3.2"/><circle class="node" cx="21.0" cy="96.5" r="3.2"/><circle class="node" cx="21.0" cy="117.0" r="3.2"/><circle class="node" cx="41.5" cy="117.0" r="3.2"/><circle class="node" cx="62.0" cy="117.0" r="3.2"/><circle class="node" cx="62.0" cy="137.5" r="3.2"/><circle class="node" cx="82.5" cy="137.5" r="3.2"/><circle class="node" cx="103.0" cy="137.5" r="3.2"/><circle class="node" cx="103.0" cy="117.0" r="3.2"/><circle class="node" cx="82.5" cy="117.0" r="3.2"/><circle class="node" cx="62.0" cy="117.0" r="3.2"/><circle class="node" cx="62.0" cy="96.5" r="3.2"/><text x="10" y="216" class="meta">CRC 35C58B92</text></g><g transform="translate(568,70)"><rect class="card" x="0" y="0" width="124" height="232" rx="8"/><text x="10" y="24" class="label">G05</text><text x="10" y="41" class="meta">W1 · 0100 → 1001100</text><polyline class="path" points="62.0,76.0 21.0,76.0 21.0,117.0 62.0,117.0 103.0,117.0 103.0,158.0 62.0,158.0 21.0,158.0 21.0,117.0 62.0,117.0 103.0,117.0 103.0,76.0"/><circle class="node" cx="62.0" cy="76.0" r="3.2"/><circle class="node" cx="21.0" cy="76.0" r="3.2"/><circle class="node" cx="21.0" cy="117.0" r="3.2"/><circle class="node" cx="62.0" cy="117.0" r="3.2"/><circle class="node" cx="103.0" cy="117.0" r="3.2"/><circle class="node" cx="103.0" cy="158.0" r="3.2"/><circle class="node" cx="62.0" cy="158.0" r="3.2"/><circle class="node" cx="21.0" cy="158.0" r="3.2"/><circle class="node" cx="21.0" cy="117.0" r="3.2"/><circle class="node" cx="62.0" cy="117.0" r="3.2"/><circle class="node" cx="103.0" cy="117.0" r="3.2"/><circle class="node" cx="103.0" cy="76.0" r="3.2"/><text x="10" y="216" class="meta">CRC 7D6BBFFA</text></g><g transform="translate(708,70)"><rect class="card" x="0" y="0" width="124" height="232" rx="8"/><text x="10" y="24" class="label">G06</text><text x="10" y="41" class="meta">W1 · 0101 → 0100101</text><polyline class="path" points="21.0,76.0 62.0,76.0 62.0,117.0 21.0,117.0 62.0,117.0 62.0,158.0 103.0,158.0 62.0,158.0 62.0,117.0 103.0,117.0 62.0,117.0 62.0,76.0"/><circle class="node" cx="21.0" cy="76.0" r="3.2"/><circle class="node" cx="62.0" cy="76.0" r="3.2"/><circle class="node" cx="62.0" cy="117.0" r="3.2"/><circle class="node" cx="21.0" cy="117.0" r="3.2"/><circle class="node" cx="62.0" cy="117.0" r="3.2"/><circle class="node" cx="62.0" cy="158.0" r="3.2"/><circle class="node" cx="103.0" cy="158.0" r="3.2"/><circle class="node" cx="62.0" cy="158.0" r="3.2"/><circle class="node" cx="62.0" cy="117.0" r="3.2"/><circle class="node" cx="103.0" cy="117.0" r="3.2"/><circle class="node" cx="62.0" cy="117.0" r="3.2"/><circle class="node" cx="62.0" cy="76.0" r="3.2"/><text x="10" y="216" class="meta">CRC 0961F2EC</text></g><g transform="translate(848,70)"><rect class="card" x="0" y="0" width="124" height="232" rx="8"/><text x="10" y="24" class="label">G07</text><text x="10" y="41" class="meta">W1 · 0110 → 1100110</text><polyline class="path" points="103.0,76.0 62.0,76.0 62.0,117.0 21.0,117.0 62.0,117.0 62.0,158.0 103.0,158.0 62.0,158.0 62.0,117.0 21.0,117.0 62.0,117.0 62.0,76.0"/><circle class="node" cx="103.0" cy="76.0" r="3.2"/><circle class="node" cx="62.0" cy="76.0" r="3.2"/><circle class="node" cx="62.0" cy="117.0" r="3.2"/><circle class="node" cx="21.0" cy="117.0" r="3.2"/><circle class="node" cx="62.0" cy="117.0" r="3.2"/><circle class="node" cx="62.0" cy="158.0" r="3.2"/><circle class="node" cx="103.0" cy="158.0" r="3.2"/><circle class="node" cx="62.0" cy="158.0" r="3.2"/><circle class="node" cx="62.0" cy="117.0" r="3.2"/><circle class="node" cx="21.0" cy="117.0" r="3.2"/><circle class="node" cx="62.0" cy="117.0" r="3.2"/><circle class="node" cx="62.0" cy="76.0" r="3.2"/><text x="10" y="216" class="meta">CRC 349F0029</text></g><g transform="translate(988,70)"><rect class="card" x="0" y="0" width="124" height="232" rx="8"/><text x="10" y="24" class="label">G08</text><text x="10" y="41" class="meta">W1 · 0111 → 0001111</text><polyline class="path" points="41.5,96.5 62.0,96.5 62.0,117.0 82.5,117.0 103.0,117.0 103.0,137.5 82.5,137.5 62.0,137.5 62.0,117.0 41.5,117.0 21.0,117.0 21.0,96.5"/><circle class="node" cx="41.5" cy="96.5" r="3.2"/><circle class="node" cx="62.0" cy="96.5" r="3.2"/><circle class="node" cx="62.0" cy="117.0" r="3.2"/><circle class="node" cx="82.5" cy="117.0" r="3.2"/><circle class="node" cx="103.0" cy="117.0" r="3.2"/><circle class="node" cx="103.0" cy="137.5" r="3.2"/><circle class="node" cx="82.5" cy="137.5" r="3.2"/><circle class="node" cx="62.0" cy="137.5" r="3.2"/><circle class="node" cx="62.0" cy="117.0" r="3.2"/><circle class="node" cx="41.5" cy="117.0" r="3.2"/><circle class="node" cx="21.0" cy="117.0" r="3.2"/><circle class="node" cx="21.0" cy="96.5" r="3.2"/><text x="10" y="216" class="meta">CRC 0340341C</text></g><g transform="translate(1128,70)"><rect class="card" x="0" y="0" width="124" height="232" rx="8"/><text x="10" y="24" class="label">G09</text><text x="10" y="41" class="meta">W1 · 1000 → 1110000</text><polyline class="path" points="82.5,96.5 62.0,96.5 62.0,117.0 41.5,117.0 21.0,117.0 21.0,137.5 41.5,137.5 62.0,137.5 62.0,117.0 82.5,117.0 103.0,117.0 103.0,96.5"/><circle class="node" cx="82.5" cy="96.5" r="3.2"/><circle class="node" cx="62.0" cy="96.5" r="3.2"/><circle class="node" cx="62.0" cy="117.0" r="3.2"/><circle class="node" cx="41.5" cy="117.0" r="3.2"/><circle class="node" cx="21.0" cy="117.0" r="3.2"/><circle class="node" cx="21.0" cy="137.5" r="3.2"/><circle class="node" cx="41.5" cy="137.5" r="3.2"/><circle class="node" cx="62.0" cy="137.5" r="3.2"/><circle class="node" cx="62.0" cy="117.0" r="3.2"/><circle class="node" cx="82.5" cy="117.0" r="3.2"/><circle class="node" cx="103.0" cy="117.0" r="3.2"/><circle class="node" cx="103.0" cy="96.5" r="3.2"/><text x="10" y="216" class="meta">CRC 32A5718B</text></g><g transform="translate(1268,70)"><rect class="card" x="0" y="0" width="124" height="232" rx="8"/><text x="10" y="24" class="label">G10</text><text x="10" y="41" class="meta">W1 · 1001 → 0011001</text><polyline class="path" points="21.0,76.0 62.0,76.0 62.0,117.0 103.0,117.0 62.0,117.0 62.0,158.0 21.0,158.0 62.0,158.0 62.0,117.0 103.0,117.0 62.0,117.0 62.0,76.0"/><circle class="node" cx="21.0" cy="76.0" r="3.2"/><circle class="node" cx="62.0" cy="76.0" r="3.2"/><circle class="node" cx="62.0" cy="117.0" r="3.2"/><circle class="node" cx="103.0" cy="117.0" r="3.2"/><circle class="node" cx="62.0" cy="117.0" r="3.2"/><circle class="node" cx="62.0" cy="158.0" r="3.2"/><circle class="node" cx="21.0" cy="158.0" r="3.2"/><circle class="node" cx="62.0" cy="158.0" r="3.2"/><circle class="node" cx="62.0" cy="117.0" r="3.2"/><circle class="node" cx="103.0" cy="117.0" r="3.2"/><circle class="node" cx="62.0" cy="117.0" r="3.2"/><circle class="node" cx="62.0" cy="76.0" r="3.2"/><text x="10" y="216" class="meta">CRC 057A45BE</text></g><g transform="translate(8,320)"><rect class="card" x="0" y="0" width="124" height="232" rx="8"/><text x="10" y="24" class="label">G11</text><text x="10" y="41" class="meta">W2 · 0000 → 0000000</text><polyline class="path" points="21.0,105.3 32.7,105.3 44.4,105.3 44.4,117.0 44.4,128.7 56.1,128.7 67.9,128.7 67.9,117.0 79.6,117.0 91.3,117.0 91.3,105.3 103.0,105.3"/><circle class="node" cx="21.0" cy="105.3" r="3.2"/><circle class="node" cx="32.7" cy="105.3" r="3.2"/><circle class="node" cx="44.4" cy="105.3" r="3.2"/><circle class="node" cx="44.4" cy="117.0" r="3.2"/><circle class="node" cx="44.4" cy="128.7" r="3.2"/><circle class="node" cx="56.1" cy="128.7" r="3.2"/><circle class="node" cx="67.9" cy="128.7" r="3.2"/><circle class="node" cx="67.9" cy="117.0" r="3.2"/><circle class="node" cx="79.6" cy="117.0" r="3.2"/><circle class="node" cx="91.3" cy="117.0" r="3.2"/><circle class="node" cx="91.3" cy="105.3" r="3.2"/><circle class="node" cx="103.0" cy="105.3" r="3.2"/><text x="10" y="216" class="meta">CRC AC4B9A80</text></g><g transform="translate(148,320)"><rect class="card" x="0" y="0" width="124" height="232" rx="8"/><text x="10" y="24" class="label">G12</text><text x="10" y="41" class="meta">W2 · 0001 → 1101001</text><polyline class="path" points="103.0,76.0 62.0,76.0 21.0,76.0 21.0,117.0 21.0,158.0 62.0,158.0 21.0,158.0 21.0,117.0 62.0,117.0 103.0,117.0 103.0,76.0 62.0,76.0"/><circle class="node" cx="103.0" cy="76.0" r="3.2"/><circle class="node" cx="62.0" cy="76.0" r="3.2"/><circle class="node" cx="21.0" cy="76.0" r="3.2"/><circle class="node" cx="21.0" cy="117.0" r="3.2"/><circle class="node" cx="21.0" cy="158.0" r="3.2"/><circle class="node" cx="62.0" cy="158.0" r="3.2"/><circle class="node" cx="21.0" cy="158.0" r="3.2"/><circle class="node" cx="21.0" cy="117.0" r="3.2"/><circle class="node" cx="62.0" cy="117.0" r="3.2"/><circle class="node" cx="103.0" cy="117.0" r="3.2"/><circle class="node" cx="103.0" cy="76.0" r="3.2"/><circle class="node" cx="62.0" cy="76.0" r="3.2"/><text x="10" y="216" class="meta">CRC 67F32012</text></g><g transform="translate(288,320)"><rect class="card" x="0" y="0" width="124" height="232" rx="8"/><text x="10" y="24" class="label">G13</text><text x="10" y="41" class="meta">W2 · 0010 → 0101010</text><polyline class="path" points="41.5,76.0 82.5,76.0 41.5,76.0 41.5,117.0 41.5,158.0 82.5,158.0 41.5,158.0 41.5,117.0 82.5,117.0 41.5,117.0 41.5,76.0 82.5,76.0"/><circle class="node" cx="41.5" cy="76.0" r="3.2"/><circle class="node" cx="82.5" cy="76.0" r="3.2"/><circle class="node" cx="41.5" cy="76.0" r="3.2"/><circle class="node" cx="41.5" cy="117.0" r="3.2"/><circle class="node" cx="41.5" cy="158.0" r="3.2"/><circle class="node" cx="82.5" cy="158.0" r="3.2"/><circle class="node" cx="41.5" cy="158.0" r="3.2"/><circle class="node" cx="41.5" cy="117.0" r="3.2"/><circle class="node" cx="82.5" cy="117.0" r="3.2"/><circle class="node" cx="41.5" cy="117.0" r="3.2"/><circle class="node" cx="41.5" cy="76.0" r="3.2"/><circle class="node" cx="82.5" cy="76.0" r="3.2"/><text x="10" y="216" class="meta">CRC F2C0CE74</text></g><g transform="translate(428,320)"><rect class="card" x="0" y="0" width="124" height="232" rx="8"/><text x="10" y="24" class="label">G14</text><text x="10" y="41" class="meta">W2 · 0011 → 1000011</text><polyline class="path" points="41.5,96.5 21.0,96.5 41.5,96.5 41.5,117.0 41.5,137.5 62.0,137.5 82.5,137.5 82.5,117.0 103.0,117.0 82.5,117.0 82.5,96.5 62.0,96.5"/><circle class="node" cx="41.5" cy="96.5" r="3.2"/><circle class="node" cx="21.0" cy="96.5" r="3.2"/><circle class="node" cx="41.5" cy="96.5" r="3.2"/><circle class="node" cx="41.5" cy="117.0" r="3.2"/><circle class="node" cx="41.5" cy="137.5" r="3.2"/><circle class="node" cx="62.0" cy="137.5" r="3.2"/><circle class="node" cx="82.5" cy="137.5" r="3.2"/><circle class="node" cx="82.5" cy="117.0" r="3.2"/><circle class="node" cx="103.0" cy="117.0" r="3.2"/><circle class="node" cx="82.5" cy="117.0" r="3.2"/><circle class="node" cx="82.5" cy="96.5" r="3.2"/><circle class="node" cx="62.0" cy="96.5" r="3.2"/><text x="10" y="216" class="meta">CRC B7C8D7CF</text></g><g transform="translate(568,320)"><rect class="card" x="0" y="0" width="124" height="232" rx="8"/><text x="10" y="24" class="label">G15</text><text x="10" y="41" class="meta">W2 · 0100 → 1001100</text><polyline class="path" points="62.0,76.0 21.0,76.0 62.0,76.0 62.0,117.0 62.0,158.0 103.0,158.0 62.0,158.0 62.0,117.0 21.0,117.0 62.0,117.0 62.0,76.0 103.0,76.0"/><circle class="node" cx="62.0" cy="76.0" r="3.2"/><circle class="node" cx="21.0" cy="76.0" r="3.2"/><circle class="node" cx="62.0" cy="76.0" r="3.2"/><circle class="node" cx="62.0" cy="117.0" r="3.2"/><circle class="node" cx="62.0" cy="158.0" r="3.2"/><circle class="node" cx="103.0" cy="158.0" r="3.2"/><circle class="node" cx="62.0" cy="158.0" r="3.2"/><circle class="node" cx="62.0" cy="117.0" r="3.2"/><circle class="node" cx="21.0" cy="117.0" r="3.2"/><circle class="node" cx="62.0" cy="117.0" r="3.2"/><circle class="node" cx="62.0" cy="76.0" r="3.2"/><circle class="node" cx="103.0" cy="76.0" r="3.2"/><text x="10" y="216" class="meta">CRC 9F784EF1</text></g><g transform="translate(708,320)"><rect class="card" x="0" y="0" width="124" height="232" rx="8"/><text x="10" y="24" class="label">G16</text><text x="10" y="41" class="meta">W2 · 0101 → 0100101</text><polyline class="path" points="21.0,76.0 62.0,76.0 21.0,76.0 21.0,117.0 21.0,158.0 62.0,158.0 103.0,158.0 103.0,117.0 62.0,117.0 103.0,117.0 103.0,76.0 62.0,76.0"/><circle class="node" cx="21.0" cy="76.0" r="3.2"/><circle class="node" cx="62.0" cy="76.0" r="3.2"/><circle class="node" cx="21.0" cy="76.0" r="3.2"/><circle class="node" cx="21.0" cy="117.0" r="3.2"/><circle class="node" cx="21.0" cy="158.0" r="3.2"/><circle class="node" cx="62.0" cy="158.0" r="3.2"/><circle class="node" cx="103.0" cy="158.0" r="3.2"/><circle class="node" cx="103.0" cy="117.0" r="3.2"/><circle class="node" cx="62.0" cy="117.0" r="3.2"/><circle class="node" cx="103.0" cy="117.0" r="3.2"/><circle class="node" cx="103.0" cy="76.0" r="3.2"/><circle class="node" cx="62.0" cy="76.0" r="3.2"/><text x="10" y="216" class="meta">CRC 397B4F9B</text></g><g transform="translate(848,320)"><rect class="card" x="0" y="0" width="124" height="232" rx="8"/><text x="10" y="24" class="label">G17</text><text x="10" y="41" class="meta">W2 · 0110 → 1100110</text><polyline class="path" points="103.0,76.0 62.0,76.0 21.0,76.0 21.0,117.0 21.0,158.0 62.0,158.0 103.0,158.0 103.0,117.0 62.0,117.0 21.0,117.0 21.0,76.0 62.0,76.0"/><circle class="node" cx="103.0" cy="76.0" r="3.2"/><circle class="node" cx="62.0" cy="76.0" r="3.2"/><circle class="node" cx="21.0" cy="76.0" r="3.2"/><circle class="node" cx="21.0" cy="117.0" r="3.2"/><circle class="node" cx="21.0" cy="158.0" r="3.2"/><circle class="node" cx="62.0" cy="158.0" r="3.2"/><circle class="node" cx="103.0" cy="158.0" r="3.2"/><circle class="node" cx="103.0" cy="117.0" r="3.2"/><circle class="node" cx="62.0" cy="117.0" r="3.2"/><circle class="node" cx="21.0" cy="117.0" r="3.2"/><circle class="node" cx="21.0" cy="76.0" r="3.2"/><circle class="node" cx="62.0" cy="76.0" r="3.2"/><text x="10" y="216" class="meta">CRC B73E1FC7</text></g><g transform="translate(988,320)"><rect class="card" x="0" y="0" width="124" height="232" rx="8"/><text x="10" y="24" class="label">G18</text><text x="10" y="41" class="meta">W2 · 0111 → 0001111</text><polyline class="path" points="41.5,96.5 62.0,96.5 82.5,96.5 82.5,117.0 82.5,137.5 103.0,137.5 82.5,137.5 82.5,117.0 62.0,117.0 41.5,117.0 41.5,96.5 21.0,96.5"/><circle class="node" cx="41.5" cy="96.5" r="3.2"/><circle class="node" cx="62.0" cy="96.5" r="3.2"/><circle class="node" cx="82.5" cy="96.5" r="3.2"/><circle class="node" cx="82.5" cy="117.0" r="3.2"/><circle class="node" cx="82.5" cy="137.5" r="3.2"/><circle class="node" cx="103.0" cy="137.5" r="3.2"/><circle class="node" cx="82.5" cy="137.5" r="3.2"/><circle class="node" cx="82.5" cy="117.0" r="3.2"/><circle class="node" cx="62.0" cy="117.0" r="3.2"/><circle class="node" cx="41.5" cy="117.0" r="3.2"/><circle class="node" cx="41.5" cy="96.5" r="3.2"/><circle class="node" cx="21.0" cy="96.5" r="3.2"/><text x="10" y="216" class="meta">CRC A8DDB096</text></g><g transform="translate(1128,320)"><rect class="card" x="0" y="0" width="124" height="232" rx="8"/><text x="10" y="24" class="label">G19</text><text x="10" y="41" class="meta">W2 · 1000 → 1110000</text><polyline class="path" points="82.5,96.5 62.0,96.5 41.5,96.5 41.5,117.0 41.5,137.5 21.0,137.5 41.5,137.5 41.5,117.0 62.0,117.0 82.5,117.0 82.5,96.5 103.0,96.5"/><circle class="node" cx="82.5" cy="96.5" r="3.2"/><circle class="node" cx="62.0" cy="96.5" r="3.2"/><circle class="node" cx="41.5" cy="96.5" r="3.2"/><circle class="node" cx="41.5" cy="117.0" r="3.2"/><circle class="node" cx="41.5" cy="137.5" r="3.2"/><circle class="node" cx="21.0" cy="137.5" r="3.2"/><circle class="node" cx="41.5" cy="137.5" r="3.2"/><circle class="node" cx="41.5" cy="117.0" r="3.2"/><circle class="node" cx="62.0" cy="117.0" r="3.2"/><circle class="node" cx="82.5" cy="117.0" r="3.2"/><circle class="node" cx="82.5" cy="96.5" r="3.2"/><circle class="node" cx="103.0" cy="96.5" r="3.2"/><text x="10" y="216" class="meta">CRC 3C1E396D</text></g><g transform="translate(1268,320)"><rect class="card" x="0" y="0" width="124" height="232" rx="8"/><text x="10" y="24" class="label">G20</text><text x="10" y="41" class="meta">W2 · 1001 → 0011001</text><polyline class="path" points="21.0,76.0 62.0,76.0 103.0,76.0 103.0,117.0 103.0,158.0 62.0,158.0 21.0,158.0 21.0,117.0 62.0,117.0 103.0,117.0 103.0,76.0 62.0,76.0"/><circle class="node" cx="21.0" cy="76.0" r="3.2"/><circle class="node" cx="62.0" cy="76.0" r="3.2"/><circle class="node" cx="103.0" cy="76.0" r="3.2"/><circle class="node" cx="103.0" cy="117.0" r="3.2"/><circle class="node" cx="103.0" cy="158.0" r="3.2"/><circle class="node" cx="62.0" cy="158.0" r="3.2"/><circle class="node" cx="21.0" cy="158.0" r="3.2"/><circle class="node" cx="21.0" cy="117.0" r="3.2"/><circle class="node" cx="62.0" cy="117.0" r="3.2"/><circle class="node" cx="103.0" cy="117.0" r="3.2"/><circle class="node" cx="103.0" cy="76.0" r="3.2"/><circle class="node" cx="62.0" cy="76.0" r="3.2"/><text x="10" y="216" class="meta">CRC 2EEFCBD4</text></g><g transform="translate(8,570)"><rect class="card" x="0" y="0" width="124" height="232" rx="8"/><text x="10" y="24" class="label">G21</text><text x="10" y="41" class="meta">W3 · 0000 → 0000000</text><polyline class="path" points="21.0,128.7 32.7,128.7 44.4,128.7 44.4,117.0 56.1,117.0 56.1,105.3 67.9,105.3 79.6,105.3 79.6,117.0 91.3,117.0 103.0,117.0 103.0,128.7"/><circle class="node" cx="21.0" cy="128.7" r="3.2"/><circle class="node" cx="32.7" cy="128.7" r="3.2"/><circle class="node" cx="44.4" cy="128.7" r="3.2"/><circle class="node" cx="44.4" cy="117.0" r="3.2"/><circle class="node" cx="56.1" cy="117.0" r="3.2"/><circle class="node" cx="56.1" cy="105.3" r="3.2"/><circle class="node" cx="67.9" cy="105.3" r="3.2"/><circle class="node" cx="79.6" cy="105.3" r="3.2"/><circle class="node" cx="79.6" cy="117.0" r="3.2"/><circle class="node" cx="91.3" cy="117.0" r="3.2"/><circle class="node" cx="103.0" cy="117.0" r="3.2"/><circle class="node" cx="103.0" cy="128.7" r="3.2"/><text x="10" y="216" class="meta">CRC CA61014B</text></g><g transform="translate(148,570)"><rect class="card" x="0" y="0" width="124" height="232" rx="8"/><text x="10" y="24" class="label">G22</text><text x="10" y="41" class="meta">W3 · 0001 → 1101001</text><polyline class="path" points="103.0,158.0 62.0,158.0 21.0,158.0 21.0,117.0 62.0,117.0 62.0,76.0 21.0,76.0 62.0,76.0 62.0,117.0 103.0,117.0 62.0,117.0 62.0,158.0"/><circle class="node" cx="103.0" cy="158.0" r="3.2"/><circle class="node" cx="62.0" cy="158.0" r="3.2"/><circle class="node" cx="21.0" cy="158.0" r="3.2"/><circle class="node" cx="21.0" cy="117.0" r="3.2"/><circle class="node" cx="62.0" cy="117.0" r="3.2"/><circle class="node" cx="62.0" cy="76.0" r="3.2"/><circle class="node" cx="21.0" cy="76.0" r="3.2"/><circle class="node" cx="62.0" cy="76.0" r="3.2"/><circle class="node" cx="62.0" cy="117.0" r="3.2"/><circle class="node" cx="103.0" cy="117.0" r="3.2"/><circle class="node" cx="62.0" cy="117.0" r="3.2"/><circle class="node" cx="62.0" cy="158.0" r="3.2"/><text x="10" y="216" class="meta">CRC DF98677D</text></g><g transform="translate(288,570)"><rect class="card" x="0" y="0" width="124" height="232" rx="8"/><text x="10" y="24" class="label">G23</text><text x="10" y="41" class="meta">W3 · 0010 → 0101010</text><polyline class="path" points="41.5,158.0 82.5,158.0 41.5,158.0 41.5,117.0 82.5,117.0 82.5,76.0 41.5,76.0 82.5,76.0 82.5,117.0 41.5,117.0 82.5,117.0 82.5,158.0"/><circle class="node" cx="41.5" cy="158.0" r="3.2"/><circle class="node" cx="82.5" cy="158.0" r="3.2"/><circle class="node" cx="41.5" cy="158.0" r="3.2"/><circle class="node" cx="41.5" cy="117.0" r="3.2"/><circle class="node" cx="82.5" cy="117.0" r="3.2"/><circle class="node" cx="82.5" cy="76.0" r="3.2"/><circle class="node" cx="41.5" cy="76.0" r="3.2"/><circle class="node" cx="82.5" cy="76.0" r="3.2"/><circle class="node" cx="82.5" cy="117.0" r="3.2"/><circle class="node" cx="41.5" cy="117.0" r="3.2"/><circle class="node" cx="82.5" cy="117.0" r="3.2"/><circle class="node" cx="82.5" cy="158.0" r="3.2"/><text x="10" y="216" class="meta">CRC B6E804D2</text></g><g transform="translate(428,570)"><rect class="card" x="0" y="0" width="124" height="232" rx="8"/><text x="10" y="24" class="label">G24</text><text x="10" y="41" class="meta">W3 · 0011 → 1000011</text><polyline class="path" points="41.5,137.5 21.0,137.5 41.5,137.5 41.5,117.0 62.0,117.0 62.0,96.5 82.5,96.5 103.0,96.5 103.0,117.0 82.5,117.0 62.0,117.0 62.0,137.5"/><circle class="node" cx="41.5" cy="137.5" r="3.2"/><circle class="node" cx="21.0" cy="137.5" r="3.2"/><circle class="node" cx="41.5" cy="137.5" r="3.2"/><circle class="node" cx="41.5" cy="117.0" r="3.2"/><circle class="node" cx="62.0" cy="117.0" r="3.2"/><circle class="node" cx="62.0" cy="96.5" r="3.2"/><circle class="node" cx="82.5" cy="96.5" r="3.2"/><circle class="node" cx="103.0" cy="96.5" r="3.2"/><circle class="node" cx="103.0" cy="117.0" r="3.2"/><circle class="node" cx="82.5" cy="117.0" r="3.2"/><circle class="node" cx="62.0" cy="117.0" r="3.2"/><circle class="node" cx="62.0" cy="137.5" r="3.2"/><text x="10" y="216" class="meta">CRC 6EFE01AF</text></g><g transform="translate(568,570)"><rect class="card" x="0" y="0" width="124" height="232" rx="8"/><text x="10" y="24" class="label">G25</text><text x="10" y="41" class="meta">W3 · 0100 → 1001100</text><polyline class="path" points="62.0,158.0 21.0,158.0 62.0,158.0 62.0,117.0 103.0,117.0 103.0,76.0 62.0,76.0 21.0,76.0 21.0,117.0 62.0,117.0 103.0,117.0 103.0,158.0"/><circle class="node" cx="62.0" cy="158.0" r="3.2"/><circle class="node" cx="21.0" cy="158.0" r="3.2"/><circle class="node" cx="62.0" cy="158.0" r="3.2"/><circle class="node" cx="62.0" cy="117.0" r="3.2"/><circle class="node" cx="103.0" cy="117.0" r="3.2"/><circle class="node" cx="103.0" cy="76.0" r="3.2"/><circle class="node" cx="62.0" cy="76.0" r="3.2"/><circle class="node" cx="21.0" cy="76.0" r="3.2"/><circle class="node" cx="21.0" cy="117.0" r="3.2"/><circle class="node" cx="62.0" cy="117.0" r="3.2"/><circle class="node" cx="103.0" cy="117.0" r="3.2"/><circle class="node" cx="103.0" cy="158.0" r="3.2"/><text x="10" y="216" class="meta">CRC 2430B011</text></g><g transform="translate(708,570)"><rect class="card" x="0" y="0" width="124" height="232" rx="8"/><text x="10" y="24" class="label">G26</text><text x="10" y="41" class="meta">W3 · 0101 → 0100101</text><polyline class="path" points="21.0,158.0 62.0,158.0 21.0,158.0 21.0,117.0 62.0,117.0 62.0,76.0 103.0,76.0 62.0,76.0 62.0,117.0 103.0,117.0 62.0,117.0 62.0,158.0"/><circle class="node" cx="21.0" cy="158.0" r="3.2"/><circle class="node" cx="62.0" cy="158.0" r="3.2"/><circle class="node" cx="21.0" cy="158.0" r="3.2"/><circle class="node" cx="21.0" cy="117.0" r="3.2"/><circle class="node" cx="62.0" cy="117.0" r="3.2"/><circle class="node" cx="62.0" cy="76.0" r="3.2"/><circle class="node" cx="103.0" cy="76.0" r="3.2"/><circle class="node" cx="62.0" cy="76.0" r="3.2"/><circle class="node" cx="62.0" cy="117.0" r="3.2"/><circle class="node" cx="103.0" cy="117.0" r="3.2"/><circle class="node" cx="62.0" cy="117.0" r="3.2"/><circle class="node" cx="62.0" cy="158.0" r="3.2"/><text x="10" y="216" class="meta">CRC 796309B6</text></g><g transform="translate(848,570)"><rect class="card" x="0" y="0" width="124" height="232" rx="8"/><text x="10" y="24" class="label">G27</text><text x="10" y="41" class="meta">W3 · 0110 → 1100110</text><polyline class="path" points="103.0,158.0 62.0,158.0 21.0,158.0 21.0,117.0 62.0,117.0 62.0,76.0 103.0,76.0 62.0,76.0 62.0,117.0 21.0,117.0 62.0,117.0 62.0,158.0"/><circle class="node" cx="103.0" cy="158.0" r="3.2"/><circle class="node" cx="62.0" cy="158.0" r="3.2"/><circle class="node" cx="21.0" cy="158.0" r="3.2"/><circle class="node" cx="21.0" cy="117.0" r="3.2"/><circle class="node" cx="62.0" cy="117.0" r="3.2"/><circle class="node" cx="62.0" cy="76.0" r="3.2"/><circle class="node" cx="103.0" cy="76.0" r="3.2"/><circle class="node" cx="62.0" cy="76.0" r="3.2"/><circle class="node" cx="62.0" cy="117.0" r="3.2"/><circle class="node" cx="21.0" cy="117.0" r="3.2"/><circle class="node" cx="62.0" cy="117.0" r="3.2"/><circle class="node" cx="62.0" cy="158.0" r="3.2"/><text x="10" y="216" class="meta">CRC 3FFE22CB</text></g><g transform="translate(988,570)"><rect class="card" x="0" y="0" width="124" height="232" rx="8"/><text x="10" y="24" class="label">G28</text><text x="10" y="41" class="meta">W3 · 0111 → 0001111</text><polyline class="path" points="41.5,137.5 62.0,137.5 82.5,137.5 82.5,117.0 103.0,117.0 103.0,96.5 82.5,96.5 62.0,96.5 62.0,117.0 41.5,117.0 21.0,117.0 21.0,137.5"/><circle class="node" cx="41.5" cy="137.5" r="3.2"/><circle class="node" cx="62.0" cy="137.5" r="3.2"/><circle class="node" cx="82.5" cy="137.5" r="3.2"/><circle class="node" cx="82.5" cy="117.0" r="3.2"/><circle class="node" cx="103.0" cy="117.0" r="3.2"/><circle class="node" cx="103.0" cy="96.5" r="3.2"/><circle class="node" cx="82.5" cy="96.5" r="3.2"/><circle class="node" cx="62.0" cy="96.5" r="3.2"/><circle class="node" cx="62.0" cy="117.0" r="3.2"/><circle class="node" cx="41.5" cy="117.0" r="3.2"/><circle class="node" cx="21.0" cy="117.0" r="3.2"/><circle class="node" cx="21.0" cy="137.5" r="3.2"/><text x="10" y="216" class="meta">CRC 82B6F04A</text></g><g transform="translate(1128,570)"><rect class="card" x="0" y="0" width="124" height="232" rx="8"/><text x="10" y="24" class="label">G29</text><text x="10" y="41" class="meta">W3 · 1000 → 1110000</text><polyline class="path" points="82.5,137.5 62.0,137.5 41.5,137.5 41.5,117.0 21.0,117.0 21.0,96.5 41.5,96.5 62.0,96.5 62.0,117.0 82.5,117.0 103.0,117.0 103.0,137.5"/><circle class="node" cx="82.5" cy="137.5" r="3.2"/><circle class="node" cx="62.0" cy="137.5" r="3.2"/><circle class="node" cx="41.5" cy="137.5" r="3.2"/><circle class="node" cx="41.5" cy="117.0" r="3.2"/><circle class="node" cx="21.0" cy="117.0" r="3.2"/><circle class="node" cx="21.0" cy="96.5" r="3.2"/><circle class="node" cx="41.5" cy="96.5" r="3.2"/><circle class="node" cx="62.0" cy="96.5" r="3.2"/><circle class="node" cx="62.0" cy="117.0" r="3.2"/><circle class="node" cx="82.5" cy="117.0" r="3.2"/><circle class="node" cx="103.0" cy="117.0" r="3.2"/><circle class="node" cx="103.0" cy="137.5" r="3.2"/><text x="10" y="216" class="meta">CRC 3DA8F2D2</text></g><g transform="translate(1268,570)"><rect class="card" x="0" y="0" width="124" height="232" rx="8"/><text x="10" y="24" class="label">G30</text><text x="10" y="41" class="meta">W3 · 1001 → 0011001</text><polyline class="path" points="21.0,158.0 62.0,158.0 103.0,158.0 103.0,117.0 62.0,117.0 62.0,76.0 21.0,76.0 62.0,76.0 62.0,117.0 103.0,117.0 62.0,117.0 62.0,158.0"/><circle class="node" cx="21.0" cy="158.0" r="3.2"/><circle class="node" cx="62.0" cy="158.0" r="3.2"/><circle class="node" cx="103.0" cy="158.0" r="3.2"/><circle class="node" cx="103.0" cy="117.0" r="3.2"/><circle class="node" cx="62.0" cy="117.0" r="3.2"/><circle class="node" cx="62.0" cy="76.0" r="3.2"/><circle class="node" cx="21.0" cy="76.0" r="3.2"/><circle class="node" cx="62.0" cy="76.0" r="3.2"/><circle class="node" cx="62.0" cy="117.0" r="3.2"/><circle class="node" cx="103.0" cy="117.0" r="3.2"/><circle class="node" cx="62.0" cy="117.0" r="3.2"/><circle class="node" cx="62.0" cy="158.0" r="3.2"/><text x="10" y="216" class="meta">CRC 80E02053</text></g><g transform="translate(8,820)"><rect class="card" x="0" y="0" width="124" height="232" rx="8"/><text x="10" y="24" class="label">G31</text><text x="10" y="41" class="meta">W4 · 0000 → 0000000</text><polyline class="path" points="21.0,128.7 21.0,117.0 32.7,117.0 44.4,117.0 56.1,117.0 67.9,117.0 67.9,105.3 67.9,117.0 79.6,117.0 91.3,117.0 91.3,128.7 103.0,128.7"/><circle class="node" cx="21.0" cy="128.7" r="3.2"/><circle class="node" cx="21.0" cy="117.0" r="3.2"/><circle class="node" cx="32.7" cy="117.0" r="3.2"/><circle class="node" cx="44.4" cy="117.0" r="3.2"/><circle class="node" cx="56.1" cy="117.0" r="3.2"/><circle class="node" cx="67.9" cy="117.0" r="3.2"/><circle class="node" cx="67.9" cy="105.3" r="3.2"/><circle class="node" cx="67.9" cy="117.0" r="3.2"/><circle class="node" cx="79.6" cy="117.0" r="3.2"/><circle class="node" cx="91.3" cy="117.0" r="3.2"/><circle class="node" cx="91.3" cy="128.7" r="3.2"/><circle class="node" cx="103.0" cy="128.7" r="3.2"/><text x="10" y="216" class="meta">CRC E4407F43</text></g><g transform="translate(148,820)"><rect class="card" x="0" y="0" width="124" height="232" rx="8"/><text x="10" y="24" class="label">G32</text><text x="10" y="41" class="meta">W4 · 0001 → 1101001</text><polyline class="path" points="103.0,158.0 103.0,117.0 62.0,117.0 21.0,117.0 62.0,117.0 21.0,117.0 21.0,76.0 21.0,117.0 62.0,117.0 103.0,117.0 103.0,158.0 62.0,158.0"/><circle class="node" cx="103.0" cy="158.0" r="3.2"/><circle class="node" cx="103.0" cy="117.0" r="3.2"/><circle class="node" cx="62.0" cy="117.0" r="3.2"/><circle class="node" cx="21.0" cy="117.0" r="3.2"/><circle class="node" cx="62.0" cy="117.0" r="3.2"/><circle class="node" cx="21.0" cy="117.0" r="3.2"/><circle class="node" cx="21.0" cy="76.0" r="3.2"/><circle class="node" cx="21.0" cy="117.0" r="3.2"/><circle class="node" cx="62.0" cy="117.0" r="3.2"/><circle class="node" cx="103.0" cy="117.0" r="3.2"/><circle class="node" cx="103.0" cy="158.0" r="3.2"/><circle class="node" cx="62.0" cy="158.0" r="3.2"/><text x="10" y="216" class="meta">CRC 71A2D37E</text></g><g transform="translate(288,820)"><rect class="card" x="0" y="0" width="124" height="232" rx="8"/><text x="10" y="24" class="label">G33</text><text x="10" y="41" class="meta">W4 · 0010 → 0101010</text><polyline class="path" points="41.5,158.0 41.5,117.0 82.5,117.0 41.5,117.0 82.5,117.0 41.5,117.0 41.5,76.0 41.5,117.0 82.5,117.0 41.5,117.0 41.5,158.0 82.5,158.0"/><circle class="node" cx="41.5" cy="158.0" r="3.2"/><circle class="node" cx="41.5" cy="117.0" r="3.2"/><circle class="node" cx="82.5" cy="117.0" r="3.2"/><circle class="node" cx="41.5" cy="117.0" r="3.2"/><circle class="node" cx="82.5" cy="117.0" r="3.2"/><circle class="node" cx="41.5" cy="117.0" r="3.2"/><circle class="node" cx="41.5" cy="76.0" r="3.2"/><circle class="node" cx="41.5" cy="117.0" r="3.2"/><circle class="node" cx="82.5" cy="117.0" r="3.2"/><circle class="node" cx="41.5" cy="117.0" r="3.2"/><circle class="node" cx="41.5" cy="158.0" r="3.2"/><circle class="node" cx="82.5" cy="158.0" r="3.2"/><text x="10" y="216" class="meta">CRC 5D6972E5</text></g><g transform="translate(428,820)"><rect class="card" x="0" y="0" width="124" height="232" rx="8"/><text x="10" y="24" class="label">G34</text><text x="10" y="41" class="meta">W4 · 0011 → 1000011</text><polyline class="path" points="41.5,137.5 41.5,117.0 21.0,117.0 41.5,117.0 62.0,117.0 82.5,117.0 82.5,96.5 82.5,117.0 103.0,117.0 82.5,117.0 82.5,137.5 62.0,137.5"/><circle class="node" cx="41.5" cy="137.5" r="3.2"/><circle class="node" cx="41.5" cy="117.0" r="3.2"/><circle class="node" cx="21.0" cy="117.0" r="3.2"/><circle class="node" cx="41.5" cy="117.0" r="3.2"/><circle class="node" cx="62.0" cy="117.0" r="3.2"/><circle class="node" cx="82.5" cy="117.0" r="3.2"/><circle class="node" cx="82.5" cy="96.5" r="3.2"/><circle class="node" cx="82.5" cy="117.0" r="3.2"/><circle class="node" cx="103.0" cy="117.0" r="3.2"/><circle class="node" cx="82.5" cy="117.0" r="3.2"/><circle class="node" cx="82.5" cy="137.5" r="3.2"/><circle class="node" cx="62.0" cy="137.5" r="3.2"/><text x="10" y="216" class="meta">CRC 8B211980</text></g><g transform="translate(568,820)"><rect class="card" x="0" y="0" width="124" height="232" rx="8"/><text x="10" y="24" class="label">G35</text><text x="10" y="41" class="meta">W4 · 0100 → 1001100</text><polyline class="path" points="62.0,158.0 62.0,117.0 21.0,117.0 62.0,117.0 103.0,117.0 62.0,117.0 62.0,76.0 62.0,117.0 21.0,117.0 62.0,117.0 62.0,158.0 103.0,158.0"/><circle class="node" cx="62.0" cy="158.0" r="3.2"/><circle class="node" cx="62.0" cy="117.0" r="3.2"/><circle class="node" cx="21.0" cy="117.0" r="3.2"/><circle class="node" cx="62.0" cy="117.0" r="3.2"/><circle class="node" cx="103.0" cy="117.0" r="3.2"/><circle class="node" cx="62.0" cy="117.0" r="3.2"/><circle class="node" cx="62.0" cy="76.0" r="3.2"/><circle class="node" cx="62.0" cy="117.0" r="3.2"/><circle class="node" cx="21.0" cy="117.0" r="3.2"/><circle class="node" cx="62.0" cy="117.0" r="3.2"/><circle class="node" cx="62.0" cy="158.0" r="3.2"/><circle class="node" cx="103.0" cy="158.0" r="3.2"/><text x="10" y="216" class="meta">CRC 4EDE1841</text></g><g transform="translate(708,820)"><rect class="card" x="0" y="0" width="124" height="232" rx="8"/><text x="10" y="24" class="label">G36</text><text x="10" y="41" class="meta">W4 · 0101 → 0100101</text><polyline class="path" points="21.0,158.0 21.0,117.0 62.0,117.0 21.0,117.0 62.0,117.0 103.0,117.0 103.0,76.0 103.0,117.0 62.0,117.0 103.0,117.0 103.0,158.0 62.0,158.0"/><circle class="node" cx="21.0" cy="158.0" r="3.2"/><circle class="node" cx="21.0" cy="117.0" r="3.2"/><circle class="node" cx="62.0" cy="117.0" r="3.2"/><circle class="node" cx="21.0" cy="117.0" r="3.2"/><circle class="node" cx="62.0" cy="117.0" r="3.2"/><circle class="node" cx="103.0" cy="117.0" r="3.2"/><circle class="node" cx="103.0" cy="76.0" r="3.2"/><circle class="node" cx="103.0" cy="117.0" r="3.2"/><circle class="node" cx="62.0" cy="117.0" r="3.2"/><circle class="node" cx="103.0" cy="117.0" r="3.2"/><circle class="node" cx="103.0" cy="158.0" r="3.2"/><circle class="node" cx="62.0" cy="158.0" r="3.2"/><text x="10" y="216" class="meta">CRC 6807A9E3</text></g><g transform="translate(848,820)"><rect class="card" x="0" y="0" width="124" height="232" rx="8"/><text x="10" y="24" class="label">G37</text><text x="10" y="41" class="meta">W4 · 0110 → 1100110</text><polyline class="path" points="103.0,158.0 103.0,117.0 62.0,117.0 21.0,117.0 62.0,117.0 103.0,117.0 103.0,76.0 103.0,117.0 62.0,117.0 21.0,117.0 21.0,158.0 62.0,158.0"/><circle class="node" cx="103.0" cy="158.0" r="3.2"/><circle class="node" cx="103.0" cy="117.0" r="3.2"/><circle class="node" cx="62.0" cy="117.0" r="3.2"/><circle class="node" cx="21.0" cy="117.0" r="3.2"/><circle class="node" cx="62.0" cy="117.0" r="3.2"/><circle class="node" cx="103.0" cy="117.0" r="3.2"/><circle class="node" cx="103.0" cy="76.0" r="3.2"/><circle class="node" cx="103.0" cy="117.0" r="3.2"/><circle class="node" cx="62.0" cy="117.0" r="3.2"/><circle class="node" cx="21.0" cy="117.0" r="3.2"/><circle class="node" cx="21.0" cy="158.0" r="3.2"/><circle class="node" cx="62.0" cy="158.0" r="3.2"/><text x="10" y="216" class="meta">CRC 3BDEF026</text></g><g transform="translate(988,820)"><rect class="card" x="0" y="0" width="124" height="232" rx="8"/><text x="10" y="24" class="label">G38</text><text x="10" y="41" class="meta">W4 · 0111 → 0001111</text><polyline class="path" points="41.5,137.5 41.5,117.0 62.0,117.0 82.5,117.0 103.0,117.0 82.5,117.0 82.5,96.5 82.5,117.0 62.0,117.0 41.5,117.0 41.5,137.5 21.0,137.5"/><circle class="node" cx="41.5" cy="137.5" r="3.2"/><circle class="node" cx="41.5" cy="117.0" r="3.2"/><circle class="node" cx="62.0" cy="117.0" r="3.2"/><circle class="node" cx="82.5" cy="117.0" r="3.2"/><circle class="node" cx="103.0" cy="117.0" r="3.2"/><circle class="node" cx="82.5" cy="117.0" r="3.2"/><circle class="node" cx="82.5" cy="96.5" r="3.2"/><circle class="node" cx="82.5" cy="117.0" r="3.2"/><circle class="node" cx="62.0" cy="117.0" r="3.2"/><circle class="node" cx="41.5" cy="117.0" r="3.2"/><circle class="node" cx="41.5" cy="137.5" r="3.2"/><circle class="node" cx="21.0" cy="137.5" r="3.2"/><text x="10" y="216" class="meta">CRC 5058D4E5</text></g><g transform="translate(1128,820)"><rect class="card" x="0" y="0" width="124" height="232" rx="8"/><text x="10" y="24" class="label">G39</text><text x="10" y="41" class="meta">W4 · 1000 → 1110000</text><polyline class="path" points="82.5,137.5 82.5,117.0 62.0,117.0 41.5,117.0 21.0,117.0 41.5,117.0 41.5,96.5 41.5,117.0 62.0,117.0 82.5,117.0 82.5,137.5 103.0,137.5"/><circle class="node" cx="82.5" cy="137.5" r="3.2"/><circle class="node" cx="82.5" cy="117.0" r="3.2"/><circle class="node" cx="62.0" cy="117.0" r="3.2"/><circle class="node" cx="41.5" cy="117.0" r="3.2"/><circle class="node" cx="21.0" cy="117.0" r="3.2"/><circle class="node" cx="41.5" cy="117.0" r="3.2"/><circle class="node" cx="41.5" cy="96.5" r="3.2"/><circle class="node" cx="41.5" cy="117.0" r="3.2"/><circle class="node" cx="62.0" cy="117.0" r="3.2"/><circle class="node" cx="82.5" cy="117.0" r="3.2"/><circle class="node" cx="82.5" cy="137.5" r="3.2"/><circle class="node" cx="103.0" cy="137.5" r="3.2"/><text x="10" y="216" class="meta">CRC FE0A172B</text></g><g transform="translate(1268,820)"><rect class="card" x="0" y="0" width="124" height="232" rx="8"/><text x="10" y="24" class="label">G40</text><text x="10" y="41" class="meta">W4 · 1001 → 0011001</text><polyline class="path" points="21.0,158.0 21.0,117.0 62.0,117.0 103.0,117.0 62.0,117.0 21.0,117.0 21.0,76.0 21.0,117.0 62.0,117.0 103.0,117.0 103.0,158.0 62.0,158.0"/><circle class="node" cx="21.0" cy="158.0" r="3.2"/><circle class="node" cx="21.0" cy="117.0" r="3.2"/><circle class="node" cx="62.0" cy="117.0" r="3.2"/><circle class="node" cx="103.0" cy="117.0" r="3.2"/><circle class="node" cx="62.0" cy="117.0" r="3.2"/><circle class="node" cx="21.0" cy="117.0" r="3.2"/><circle class="node" cx="21.0" cy="76.0" r="3.2"/><circle class="node" cx="21.0" cy="117.0" r="3.2"/><circle class="node" cx="62.0" cy="117.0" r="3.2"/><circle class="node" cx="103.0" cy="117.0" r="3.2"/><circle class="node" cx="103.0" cy="158.0" r="3.2"/><circle class="node" cx="62.0" cy="158.0" r="3.2"/><text x="10" y="216" class="meta">CRC 138B95A5</text></g></svg>