<svg xmlns="http://www.w3.org/2000/svg" viewBox="0 0 1200 1720" role="img" aria-labelledby="title desc">
<title id="title">Dai Koo Myo Usui — HNK Master V1</title>
<desc id="desc">Vertical HNK rendering of the traditional Usui Dai Ko Myo semantic reference 大光明. Vector outlines derived from Noto Serif CJK JP; not a recovered historical HNK drawing.</desc>
<g fill="currentColor">
<path id="kanji-1" data-kanji="大" d="M638.88 88.08000000000004 558.24 80.40000000000003C558.24 130.32 558.72 178.32 555.36 223.44H377.28L380.64 236.88H554.4C543.84 346.32 506.4 441.36 372.48 522.0L376.8 529.2C551.04 461.52 599.04 364.08 613.92 249.84C627.36 345.84000000000003 663.36 462.0 774.24 529.68C779.52 496.56 797.28 479.28 826.56 474.0L827.52 468.24C693.5999999999999 414.0 637.44 326.15999999999997 620.64 236.88H810.24C816.48 236.88 821.76 234.48000000000002 823.2 229.68C799.6800000000001 208.07999999999998 759.8399999999999 179.28000000000003 759.8399999999999 179.28000000000003L724.8 223.44H616.8C620.16 184.56 620.64 143.76 621.5999999999999 101.52000000000004C633.12 100.08000000000004 637.44 95.28000000000003 638.88 88.08000000000004Z"/>
<path id="kanji-2" data-kanji="光" d="M421.44 663.6800000000001 417.12 666.08C440.64 699.2 462.71999999999997 746.24 466.08 787.52C522.24 835.52 575.52 716.96 421.44 663.6800000000001ZM720.96 659.36C703.2 708.3199999999999 679.2 764.48 661.92 797.12L666.72 801.44C703.68 776.48 744.0 740.0 777.5999999999999 701.12C788.64 702.56 795.8399999999999 698.72 798.24 693.44ZM568.8 632.48V822.08H373.91999999999996L377.76 836.0H504.48C501.59999999999997 940.16 475.67999999999995 1020.32 372.47999999999996 1076.96L374.88 1082.72C517.4399999999999 1040.96 559.68 956.48 569.28 836.0H619.2V1019.36C619.2 1058.72 630.72 1069.28 680.16 1069.28H727.2C806.8799999999999 1069.28 827.52 1058.24 827.52 1034.72C827.52 1023.68 824.16 1016.96 808.8 1010.24L806.8799999999999 933.92H802.0799999999999C792.0 968.0 783.8399999999999 997.28 778.0799999999999 1006.88C775.2 1012.16 772.3199999999999 1014.08 766.0799999999999 1014.56C759.8399999999999 1015.04 747.3599999999999 1015.04 732.96 1015.04H694.0799999999999C679.68 1015.04 676.8 1012.64 676.8 1004.48V836.0H812.16C819.3599999999999 836.0 824.16 833.6 825.5999999999999 828.33C803.52 809.12 767.04 781.76 767.04 781.76L734.88 822.08H627.3599999999999V652.1600000000001C640.3199999999999 650.24 644.16 645.44 645.1199999999999 638.72Z"/>
<path id="kanji-3" data-kanji="明" d="M739.6800000000001 1236.44V1331.96H649.44V1236.44ZM596.16 1223.0V1376.6C596.16 1476.92 582.24 1563.8 491.04 1632.92L495.84000000000003 1637.24C597.12 1593.08 632.1600000000001 1526.36 644.1600000000001 1455.8H739.6800000000001V1565.72C739.6800000000001 1573.4 737.28 1576.76 728.1600000000001 1576.76C715.6800000000001 1576.76 655.2 1572.92 655.2 1572.92V1579.64C682.56 1584.44 695.52 1590.2 704.64 1598.84C713.28 1607.0 716.64 1619.96 718.56 1637.72C785.28 1631.48 793.44 1609.4 793.44 1571.96V1245.56C803.52 1243.6399999999999 810.24 1239.32 813.6 1235.48L759.8399999999999 1193.72L734.88 1223.0H657.6L596.16 1200.92ZM739.6800000000001 1345.4V1442.3600000000001H646.0799999999999C648.48 1420.28 649.44 1398.2 649.44 1376.12V1345.4ZM438.72 1245.56H499.20000000000005V1350.68H438.72ZM386.40000000000003 1231.6399999999999V1549.88H395.52C421.92 1549.88 438.72 1536.44 438.72 1532.6V1484.6H499.20000000000005V1525.88H507.84000000000003C527.04 1525.88 551.52 1512.44 552.0 1508.12V1254.68C561.6 1252.28 568.8 1248.44 571.6800000000001 1244.12L519.84 1203.8L494.4 1231.6399999999999H444.48L386.40000000000003 1209.56ZM438.72 1364.12H499.20000000000005V1470.68H438.72Z"/>
</g>
</svg>
