<svg xmlns="http://www.w3.org/2000/svg" viewBox="0 0 1200 1200" role="img" aria-labelledby="title desc">
<title id="title">Kether Sigil V1 — HNK proposal</title>
<desc id="desc">HNK-original proposal with origin point, three concentric rings, twelve gates, thirty-six day marks and a north crown axis.</desc>
<style>
  .ring{fill:none;stroke:currentColor;stroke-width:6}
  .gate{stroke:currentColor;stroke-width:10;stroke-linecap:round}
  .day-mark{stroke:currentColor;stroke-width:5;stroke-linecap:round}
  .axis{stroke:currentColor;stroke-width:12;stroke-linecap:round}
  .crown{fill:none;stroke:currentColor;stroke-width:12;stroke-linejoin:round;stroke-linecap:round}
</style>
<g id="kether-sigil-v1" fill="none">
  <circle id="ring-1" cx="600" cy="600" r="144" class="ring"/>
  <circle id="ring-2" cx="600" cy="600" r="288" class="ring"/>
  <circle id="ring-3" cx="600" cy="600" r="432" class="ring"/>
  <line id="gate-01" x1="600" y1="268" x2="600" y2="218" class="gate"/>
  <line id="gate-02" x1="766" y1="312.48" x2="791" y2="269.18" class="gate"/>
  <line id="gate-03" x1="887.52" y1="434" x2="930.82" y2="409" class="gate"/>
  <line id="gate-04" x1="932" y1="600" x2="982" y2="600" class="gate"/>
  <line id="gate-05" x1="887.52" y1="766" x2="930.82" y2="791" class="gate"/>
  <line id="gate-06" x1="766" y1="887.52" x2="791" y2="930.82" class="gate"/>
  <line id="gate-07" x1="600" y1="932" x2="600" y2="982" class="gate"/>
  <line id="gate-08" x1="434" y1="887.52" x2="409" y2="930.82" class="gate"/>
  <line id="gate-09" x1="312.48" y1="766" x2="269.18" y2="791" class="gate"/>
  <line id="gate-10" x1="268" y1="600" x2="218" y2="600" class="gate"/>
  <line id="gate-11" x1="312.48" y1="434" x2="269.18" y2="409" class="gate"/>
  <line id="gate-12" x1="434" y1="312.48" x2="409" y2="269.18" class="gate"/>
  <line id="day-01" x1="600" y1="190" x2="600" y2="154" class="day-mark"/>
  <line id="day-02" x1="672.93" y1="186.38" x2="677.45" y2="160.78" class="day-mark"/>
  <line id="day-03" x1="743.65" y1="205.33" x2="752.54" y2="180.9" class="day-mark"/>
  <line id="day-04" x1="805" y1="244.93" x2="823" y2="213.75" class="day-mark"/>
  <line id="day-05" x1="869.97" y1="278.26" x2="886.68" y2="258.34" class="day-mark"/>
  <line id="day-06" x1="921.74" y1="330.03" x2="941.66" y2="313.32" class="day-mark"/>
  <line id="day-07" x1="955.07" y1="395" x2="986.25" y2="377" class="day-mark"/>
  <line id="day-08" x1="994.67" y1="456.35" x2="1019.1" y2="447.46" class="day-mark"/>
  <line id="day-09" x1="1013.62" y1="527.07" x2="1039.22" y2="522.55" class="day-mark"/>
  <line id="day-10" x1="1010" y1="600" x2="1046" y2="600" class="day-mark"/>
  <line id="day-11" x1="1013.62" y1="672.93" x2="1039.22" y2="677.45" class="day-mark"/>
  <line id="day-12" x1="994.67" y1="743.65" x2="1019.1" y2="752.54" class="day-mark"/>
  <line id="day-13" x1="955.07" y1="805" x2="986.25" y2="823" class="day-mark"/>
  <line id="day-14" x1="921.74" y1="869.97" x2="941.66" y2="886.68" class="day-mark"/>
  <line id="day-15" x1="869.97" y1="921.74" x2="886.68" y2="941.66" class="day-mark"/>
  <line id="day-16" x1="805" y1="955.07" x2="823" y2="986.25" class="day-mark"/>
  <line id="day-17" x1="743.65" y1="994.67" x2="752.54" y2="1019.1" class="day-mark"/>
  <line id="day-18" x1="672.93" y1="1013.62" x2="677.45" y2="1039.22" class="day-mark"/>
  <line id="day-19" x1="600" y1="1010" x2="600" y2="1046" class="day-mark"/>
  <line id="day-20" x1="527.07" y1="1013.62" x2="522.55" y2="1039.22" class="day-mark"/>
  <line id="day-21" x1="456.35" y1="994.67" x2="447.46" y2="1019.1" class="day-mark"/>
  <line id="day-22" x1="395" y1="955.07" x2="377" y2="986.25" class="day-mark"/>
  <line id="day-23" x1="330.03" y1="921.74" x2="313.32" y2="941.66" class="day-mark"/>
  <line id="day-24" x1="278.26" y1="869.97" x2="258.34" y2="886.68" class="day-mark"/>
  <line id="day-25" x1="244.93" y1="805" x2="213.75" y2="823" class="day-mark"/>
  <line id="day-26" x1="205.33" y1="743.65" x2="180.9" y2="752.54" class="day-mark"/>
  <line id="day-27" x1="186.38" y1="672.93" x2="160.78" y2="677.45" class="day-mark"/>
  <line id="day-28" x1="190" y1="600" x2="154" y2="600" class="day-mark"/>
  <line id="day-29" x1="186.38" y1="527.07" x2="160.78" y2="522.55" class="day-mark"/>
  <line id="day-30" x1="205.33" y1="456.35" x2="180.9" y2="447.46" class="day-mark"/>
  <line id="day-31" x1="244.93" y1="395" x2="213.75" y2="377" class="day-mark"/>
  <line id="day-32" x1="278.26" y1="330.03" x2="258.34" y2="313.32" class="day-mark"/>
  <line id="day-33" x1="330.03" y1="278.26" x2="313.32" y2="258.34" class="day-mark"/>
  <line id="day-34" x1="395" y1="244.93" x2="377" y2="213.75" class="day-mark"/>
  <line id="day-35" x1="456.35" y1="205.33" x2="447.46" y2="180.9" class="day-mark"/>
  <line id="day-36" x1="527.07" y1="186.38" x2="522.55" y2="160.78" class="day-mark"/>
  <line id="crown-axis" x1="600" y1="600" x2="600" y2="116" class="axis"/>
  <path id="crown" d="M 540 116 L 570 76 L 600 36 L 630 76 L 660 116" class="crown"/>
  <circle id="origin" cx="600" cy="600" r="12" fill="currentColor"/>
</g>
</svg>
