<svg xmlns="http://www.w3.org/2000/svg" viewBox="0 0 800 800" role="img" aria-labelledby="title desc">
<title id="title">HNK Rose of 22 Petals — Regardie-aligned computational master V1</title>
<desc id="desc">Deterministic HNK computational rose for Day 105 sigil tracing. Three mother letters, seven double letters, twelve simple letters. Hebrew glyphs are converted to vector paths; no runtime font dependency.</desc>
<metadata>
  <hnk:rose xmlns:hnk="https://hnk.local/schema/rose" version="1" source-family="Golden Dawn / Israel Regardie" product-layout="HNK computational layout V1" outer-orientation="HEH top; LAMED bottom" middle-alignment="DALET aligned above LAMED" mirroring="forbidden"/>
</metadata>
<rect width="800" height="800" fill="#f7f1df"/>
<circle cx="400" cy="400" r="350" fill="none" stroke="#1c1a17" stroke-width="4"/>
<circle cx="400" cy="400" r="245" fill="none" stroke="#1c1a17" stroke-width="3"/>
<circle cx="400" cy="400" r="145" fill="none" stroke="#1c1a17" stroke-width="3"/>
<circle cx="400" cy="400" r="58" fill="#fffaf0" stroke="#1c1a17" stroke-width="3"/>
<g id="outer-01" data-ring="simple" data-index="1" data-letter="HEH" data-hebrew="ה"><path d="M 343.76,156.41 Q 355.59,101.03 400.00,55.00 Q 444.41,101.03 456.24,156.41 Z" fill="#f4d35e" stroke="#1c1a17" stroke-width="2"/><path d="M463 0V402Q463 517 352 517H53L64 593H359Q555 593 555 405V0ZM69 0V337L161 344V0Z" transform="translate(378.4688,123.0000) scale(0.070826,-0.070826)" fill="#111"/></g>
<g id="outer-02" data-ring="simple" data-index="2" data-letter="VAV" data-hebrew="ו"><path d="M 473.09,160.92 Q 511.02,118.88 572.50,101.22 Q 587.95,163.29 570.50,217.16 Z" fill="#ee964b" stroke="#1c1a17" stroke-width="2"/><path d="M129 0V517H38L49 593H221V0Z" transform="translate(539.8280,162.9244) scale(0.070826,-0.070826)" fill="#111"/></g>
<g id="outer-03" data-ring="simple" data-index="3" data-letter="ZAYIN" data-hebrew="ז"><path d="M 582.84,229.50 Q 636.71,212.05 698.78,227.50 Q 681.12,288.98 639.08,326.91 Z" fill="#f95738" stroke="#1c1a17" stroke-width="2"/><path d="M121 1Q111 59 103.0 123.5Q95 188 90.0 245.5Q85 303 85 337Q85 368 94.0 403.0Q103 438 126.0 468.5Q149 499 190 517H42V593H299L288 517Q237 502 212.5 474.0Q188 446 181.0 412.5Q174 379 175 347Q176 321 180.5 278.5Q185 236 191.0 186.0Q197 136 203.5 87.5Q210 39 216 1Z" transform="translate(645.9793,272.0709) scale(0.070946,-0.070946)" fill="#111"/></g>
<g id="outer-04" data-ring="simple" data-index="4" data-letter="HET" data-hebrew="ח"><path d="M 643.59,343.76 Q 698.97,355.59 745.00,400.00 Q 698.97,444.41 643.59,456.24 Z" fill="#d1495b" stroke="#1c1a17" stroke-width="2"/><path d="M44 517 54 593H392Q588 593 588 405V0H496V402Q496 517 386 517H208Q202 508 195.0 483.0Q188 458 188 405V0H96V382Q96 427 104.5 462.0Q113 497 131 516L123 517Z" transform="translate(675.6189,421.0000) scale(0.070826,-0.070826)" fill="#111"/></g>
<g id="outer-05" data-ring="simple" data-index="5" data-letter="TET" data-hebrew="ט"><path d="M 639.08,473.09 Q 681.12,511.02 698.78,572.50 Q 636.71,587.95 582.84,570.50 Z" fill="#9c89b8" stroke="#1c1a17" stroke-width="2"/><path d="M316 -10Q192 -10 124.5 74.5Q57 159 57 324V593H149V324Q149 196 193.0 129.5Q237 63 314 63Q397 63 444.0 129.5Q491 196 491 324Q491 420 465.0 472.5Q439 525 375 524Q353 524 333.5 520.5Q314 517 293 513V587Q318 591 341.5 594.5Q365 598 390 598Q493 599 538.0 527.5Q583 456 583 324Q583 159 513.0 74.5Q443 -10 316 -10Z" transform="translate(635.9708,569.3092) scale(0.069077,-0.069077)" fill="#111"/></g>
<g id="outer-06" data-ring="simple" data-index="6" data-letter="YOD" data-hebrew="י"><path d="M 570.50,582.84 Q 587.95,636.71 572.50,698.78 Q 511.02,681.12 473.09,639.08 Z" fill="#5f6caf" stroke="#1c1a17" stroke-width="2"/><path d="M129 262V517H38L49 593H221V262Z" transform="translate(532.5680,712.3203) scale(0.126888,-0.126888)" fill="#111"/></g>
<g id="outer-07" data-ring="simple" data-index="7" data-letter="LAMED" data-hebrew="ל"><path d="M 456.24,643.59 Q 444.41,698.97 400.00,745.00 Q 355.59,698.97 343.76,643.59 Z" fill="#5c80bc" stroke="#1c1a17" stroke-width="2"/><path d="M126 593H487L477 535L298 0H203L378 517H34V749L126 760Z" transform="translate(385.6039,719.0000) scale(0.055263,-0.055263)" fill="#111"/></g>
<g id="outer-08" data-ring="simple" data-index="8" data-letter="NUN" data-hebrew="נ"><path d="M 326.91,639.08 Q 288.98,681.12 227.50,698.78 Q 212.05,636.71 229.50,582.84 Z" fill="#4d908e" stroke="#1c1a17" stroke-width="2"/><path d="M48 0V76H213V445Q213 483 196.0 500.0Q179 517 146 517H78L88 593H169Q235 593 270.0 557.5Q305 522 305 454V0Z" transform="translate(238.4992,679.0756) scale(0.070826,-0.070826)" fill="#111"/></g>
<g id="outer-09" data-ring="simple" data-index="9" data-letter="SAMEKH" data-hebrew="ס"><path d="M 217.16,570.50 Q 163.29,587.95 101.22,572.50 Q 118.88,511.02 160.92,473.09 Z" fill="#43aa8b" stroke="#1c1a17" stroke-width="2"/><path d="M330 -10Q202 -10 139.5 64.0Q77 138 77 282V293Q77 361 98.5 419.0Q120 477 152 512V517H44L55 593H367Q483 593 538.0 524.5Q593 456 593 327Q593 164 528.0 77.0Q463 -10 330 -10ZM169 302Q169 183 207.0 123.0Q245 63 330 63Q419 63 460.0 130.5Q501 198 501 326Q501 419 470.0 468.0Q439 517 364 517H230L228 514Q199 481 184.0 425.0Q169 369 169 302Z" transform="translate(119.7404,569.3035) scale(0.069652,-0.069652)" fill="#111"/></g>
<g id="outer-10" data-ring="simple" data-index="10" data-letter="AYIN" data-hebrew="ע"><path d="M 156.41,456.24 Q 101.03,444.41 55.00,400.00 Q 101.03,355.59 156.41,343.76 Z" fill="#90be6d" stroke="#1c1a17" stroke-width="2"/><path d="M38 -36V41L188 74L65 587L154 599L257 173Q265 133 252 89Q294 100 327.0 119.5Q360 139 384.0 176.0Q408 213 423.0 276.0Q438 339 443 438L453 593H545L536 438Q529 300 498.5 214.0Q468 128 406.0 80.5Q344 33 241 10Z" transform="translate(82.7197,418.6189) scale(0.066142,-0.066142)" fill="#111"/></g>
<g id="outer-11" data-ring="simple" data-index="11" data-letter="TSADI" data-hebrew="צ"><path d="M 160.92,326.91 Q 118.88,288.98 101.22,227.50 Q 163.29,212.05 217.16,229.50 Z" fill="#b5cc3a" stroke="#1c1a17" stroke-width="2"/><path d="M43 0V76H372L44 593H152L324 311Q354 332 371.0 367.0Q388 402 395.5 439.0Q403 476 406 503L417 593H509L498 493Q494 457 480.5 410.5Q467 364 438.0 321.0Q409 278 362 251L486 58L475 0Z" transform="translate(122.3764,272.0000) scale(0.070826,-0.070826)" fill="#111"/></g>
<g id="outer-12" data-ring="simple" data-index="12" data-letter="QOF" data-hebrew="ק"><path d="M 229.50,217.16 Q 212.05,163.29 227.50,101.22 Q 288.98,118.88 326.91,160.92 Z" fill="#e9c46a" stroke="#1c1a17" stroke-width="2"/><path d="M328 0 488 518H64L75 593H593L585 535L420 0ZM94 -191V373L186 380V-186Z" transform="translate(233.4018,152.6923) scale(0.053571,-0.053571)" fill="#111"/></g>
<g id="middle-01" data-ring="double" data-index="1" data-letter="PE" data-hebrew="פ"><path d="M 414.94,250.75 Q 444.15,204.32 505.00,181.97 Q 525.46,243.48 507.38,295.26 Z" fill="#f6bd60" stroke="#1c1a17" stroke-width="2"/><path d="M69 0V76H253Q350 76 404.0 138.0Q458 200 458 302Q458 407 415.0 467.0Q372 527 286 527Q216 527 179.0 491.0Q142 455 142 399Q142 355 162.5 324.0Q183 293 228 286Q236 284 243.0 282.5Q250 281 255 281L249 213Q231 211 195 217Q126 228 89.5 277.5Q53 327 53 401Q53 489 113.0 546.0Q173 603 286 603Q413 603 482.5 523.0Q552 443 552 302Q552 210 515.5 142.5Q479 75 410.5 37.5Q342 0 245 0Z" transform="translate(461.9649,246.4101) scale(0.076285,-0.076285)" fill="#111"/></g>
<g id="middle-02" data-ring="double" data-index="2" data-letter="RESH" data-hebrew="ר"><path d="M 526.00,318.62 Q 580.52,312.51 635.93,346.15 Q 600.60,400.50 548.84,418.65 Z" fill="#f28482" stroke="#1c1a17" stroke-width="2"/><path d="M356 0V402Q356 517 246 517H40L51 593H252Q448 593 448 405V0Z" transform="translate(572.1584,379.3859) scale(0.077572,-0.077572)" fill="#111"/></g>
<g id="middle-03" data-ring="double" data-index="3" data-letter="BET" data-hebrew="ב"><path d="M 542.19,447.77 Q 580.95,486.59 589.20,550.88 Q 524.68,557.15 478.22,527.99 Z" fill="#84a59d" stroke="#1c1a17" stroke-width="2"/><path d="M41 0V76H369V402Q369 517 258 517H71L81 593H265Q461 593 461 405V76H535L524 0Z" transform="translate(530.8983,545.2040) scale(0.077572,-0.077572)" fill="#111"/></g>
<g id="middle-04" data-ring="double" data-index="4" data-letter="DALET" data-hebrew="ד"><path d="M 451.30,540.95 Q 445.13,595.46 400.00,642.00 Q 354.87,595.46 348.70,540.95 Z" fill="#7a5195" stroke="#1c1a17" stroke-width="2"/><path d="M322 0V444Q322 461 328.5 484.0Q335 507 353 517H38V593H511L501 517H425Q418 510 416.0 495.0Q414 480 414 462V0Z" transform="translate(378.7066,619.0000) scale(0.077572,-0.077572)" fill="#111"/></g>
<g id="middle-05" data-ring="double" data-index="5" data-letter="GIMEL" data-hebrew="ג"><path d="M 321.78,527.99 Q 275.32,557.15 210.80,550.88 Q 219.05,486.59 257.81,447.77 Z" fill="#ef5675" stroke="#1c1a17" stroke-width="2"/><path d="M269 -5 231 128H224Q188 66 144.5 33.0Q101 0 38 0H23V78H36Q77 78 114.0 98.0Q151 118 178.0 146.0Q205 174 217 199V444Q217 482 198.5 499.5Q180 517 140 517H78L88 593H163Q309 593 309 453V161L351 13Z" transform="translate(232.3764,544.8194) scale(0.076923,-0.076923)" fill="#111"/></g>
<g id="middle-06" data-ring="double" data-index="6" data-letter="KAF" data-hebrew="כ"><path d="M 251.16,418.65 Q 199.40,400.50 164.07,346.15 Q 219.48,312.51 274.00,318.62 Z" fill="#ffa600" stroke="#1c1a17" stroke-width="2"/><path d="M45 0V76H209Q292 76 333.5 132.0Q375 188 375 294Q375 403 333.5 460.0Q292 517 209 517H45L56 593H209Q336 593 403.0 516.0Q470 439 470 294Q470 151 403.0 75.5Q336 0 209 0Z" transform="translate(188.9394,379.3859) scale(0.077572,-0.077572)" fill="#111"/></g>
<g id="middle-07" data-ring="double" data-index="7" data-letter="TAV" data-hebrew="ת"><path d="M 292.62,295.26 Q 274.54,243.48 295.00,181.97 Q 355.85,204.32 385.06,250.75 Z" fill="#2f4b7c" stroke="#1c1a17" stroke-width="2"/><path d="M35 0 46 76H82Q149 76 149 163V517H55L66 593H415Q611 593 611 405V0H519V402Q519 517 408 517H241V158Q241 81 204.0 40.5Q167 0 97 0Z" transform="translate(289.9031,246.4101) scale(0.077572,-0.077572)" fill="#111"/></g>
<g id="inner-01" data-ring="mother" data-index="1" data-letter="ALEF" data-hebrew="א"><path d="M 368.07,346.86 Q 363.49,300.49 400.00,258.00 Q 436.51,300.49 431.93,346.86 Z" fill="#f6e27f" stroke="#1c1a17" stroke-width="2"/><path d="M36 0 60 166Q71 248 103.0 310.0Q135 372 208 408Q161 467 122.0 516.0Q83 565 58 593H169Q197 560 231.0 516.0Q265 472 309 416Q327 391 346.0 365.0Q365 339 385 312Q436 339 459.5 387.0Q483 435 489 499L498 593H590L581 496Q573 414 536.5 353.0Q500 292 426 256Q469 195 513.0 130.5Q557 66 596 0H491Q433 99 371.5 188.5Q310 278 252 354Q201 326 180.5 277.0Q160 228 151 163L127 0Z" transform="translate(374.4216,321.0000) scale(0.080944,-0.080944)" fill="#111"/></g>
<g id="inner-02" data-ring="mother" data-index="2" data-letter="MEM" data-hebrew="מ"><path d="M 461.99,398.92 Q 504.44,418.13 522.98,471.00 Q 467.92,481.38 430.06,454.23 Z" fill="#6fa8dc" stroke="#1c1a17" stroke-width="2"/><path d="M60 0 129 355 47 593H139L188 435H191Q205 478 228.5 516.5Q252 555 292.5 579.0Q333 603 397 603Q496 603 558.5 532.5Q621 462 621 319V305Q621 212 591.5 144.0Q562 76 505.5 38.0Q449 0 367 0H267L277 76H363Q443 76 486.0 139.0Q529 202 529 305V319Q529 426 486.5 476.0Q444 526 381 526Q325 526 292.0 500.0Q259 474 242.5 434.0Q226 394 219 352L155 0Z" transform="translate(462.6136,475.5000) scale(0.079602,-0.079602)" fill="#111"/></g>
<g id="inner-03" data-ring="mother" data-index="3" data-letter="SHIN" data-hebrew="ש"><path d="M 369.94,454.23 Q 332.08,481.38 277.02,471.00 Q 295.56,418.13 338.01,398.92 Z" fill="#e06666" stroke="#1c1a17" stroke-width="2"/><path d="M359 -3Q219 -3 141.5 86.0Q64 175 64 345V593H156V345Q156 318 158 294Q241 298 280.0 348.5Q319 399 319 488V593H411V494Q411 377 351.5 307.0Q292 237 168 231Q205 70 358 70H368Q468 70 521.0 139.0Q574 208 574 344V593H665V345Q665 175 588.0 86.0Q511 -3 370 -3Z" transform="translate(281.4437,475.2584) scale(0.080537,-0.080537)" fill="#111"/></g>
<circle cx="400" cy="400" r="8" fill="#111"/>
</svg>
